<?xml version="1.0" encoding="UTF-8"?>
<svg xmlns="http://www.w3.org/2000/svg" xmlns:xlink="http://www.w3.org/1999/xlink" viewBox="0 0 80 80" width="80px" height="80px">
<g id="surface95491135">
<path style=" stroke:none;fill-rule:nonzero;fill:rgb(100%,100%,100%);fill-opacity:1;" d="M 40 7 C 27.308594 7 17 17.308594 17 30 C 17 37.285156 20.195312 41.851562 23.25 45.289062 C 24.78125 47.007812 26.269531 48.472656 27.328125 49.871094 C 28.386719 51.265625 29 52.535156 29 54 L 29 64 C 29 66.75 31.25 69 34 69 L 35.101562 69 C 35.570312 71.273438 37.59375 73 40 73 C 42.40625 73 44.429688 71.273438 44.898438 69 L 46 69 C 48.75 69 51 66.75 51 64 L 51 54 C 51 52.535156 51.613281 51.265625 52.671875 49.871094 C 53.730469 48.472656 55.21875 47.007812 56.75 45.289062 C 59.804688 41.851562 63 37.285156 63 30 C 63 17.308594 52.691406 7 40 7 Z M 40 9 C 51.609375 9 61 18.390625 61 30 C 61 36.714844 58.195312 40.648438 55.25 43.960938 C 53.78125 45.617188 52.269531 47.089844 51.078125 48.660156 C 49.886719 50.234375 49 51.964844 49 54 L 49 55 L 44 55 L 44 34.796875 C 45.707031 34.339844 47 32.84375 47 31 C 47 28.800781 45.199219 27 43 27 C 41.789062 27 40.734375 27.578125 40 28.4375 C 39.265625 27.578125 38.210938 27 37 27 C 34.800781 27 33 28.800781 33 31 C 33 32.84375 34.292969 34.339844 36 34.796875 L 36 55 L 31 55 L 31 54 C 31 51.964844 30.113281 50.234375 28.921875 48.660156 C 27.730469 47.089844 26.21875 45.617188 24.75 43.960938 C 21.804688 40.648438 19 36.714844 19 30 C 19 18.390625 28.390625 9 40 9 Z M 40 12 C 39.449219 12 39 12.449219 39 13 C 39 13.550781 39.449219 14 40 14 C 40.550781 14 41 13.550781 41 13 C 41 12.449219 40.550781 12 40 12 Z M 35.640625 12.578125 C 35.539062 12.578125 35.4375 12.585938 35.34375 12.613281 C 34.808594 12.757812 34.492188 13.304688 34.636719 13.839844 C 34.777344 14.371094 35.324219 14.6875 35.859375 14.546875 C 36.394531 14.402344 36.710938 13.855469 36.566406 13.320312 C 36.453125 12.898438 36.078125 12.597656 35.640625 12.578125 Z M 44.390625 12.578125 C 43.941406 12.582031 43.550781 12.886719 43.433594 13.320312 C 43.289062 13.855469 43.605469 14.402344 44.140625 14.546875 C 44.675781 14.6875 45.222656 14.371094 45.363281 13.839844 C 45.507812 13.304688 45.191406 12.757812 44.65625 12.613281 C 44.570312 12.589844 44.480469 12.578125 44.390625 12.578125 Z M 31.476562 14.277344 C 31.308594 14.28125 31.144531 14.328125 31 14.410156 C 30.523438 14.6875 30.355469 15.300781 30.632812 15.777344 C 30.765625 16.007812 30.984375 16.175781 31.242188 16.246094 C 31.496094 16.3125 31.769531 16.277344 32 16.144531 C 32.230469 16.011719 32.398438 15.792969 32.464844 15.535156 C 32.535156 15.28125 32.5 15.007812 32.363281 14.777344 C 32.183594 14.460938 31.84375 14.269531 31.476562 14.277344 Z M 48.453125 14.28125 C 48.109375 14.296875 47.800781 14.484375 47.632812 14.78125 C 47.355469 15.257812 47.523438 15.867188 48 16.144531 C 48.476562 16.421875 49.089844 16.257812 49.363281 15.78125 C 49.5 15.550781 49.535156 15.277344 49.464844 15.019531 C 49.398438 14.761719 49.230469 14.542969 49 14.410156 C 48.832031 14.316406 48.644531 14.269531 48.453125 14.28125 Z M 52.035156 16.980469 C 51.765625 16.972656 51.503906 17.078125 51.3125 17.269531 C 50.921875 17.660156 50.921875 18.296875 51.3125 18.6875 C 51.703125 19.074219 52.335938 19.074219 52.726562 18.6875 C 53.117188 18.296875 53.117188 17.660156 52.726562 17.269531 C 52.542969 17.085938 52.296875 16.984375 52.035156 16.980469 Z M 27.996094 16.980469 C 27.722656 16.976562 27.460938 17.082031 27.269531 17.273438 C 26.882812 17.664062 26.882812 18.296875 27.269531 18.6875 C 27.660156 19.078125 28.296875 19.078125 28.6875 18.6875 C 29.074219 18.296875 29.074219 17.664062 28.6875 17.273438 C 28.5 17.089844 28.253906 16.984375 27.996094 16.980469 Z M 54.699219 20.5 C 54.53125 20.503906 54.367188 20.550781 54.21875 20.632812 C 53.992188 20.765625 53.824219 20.984375 53.753906 21.242188 C 53.6875 21.496094 53.722656 21.769531 53.855469 22 C 54.132812 22.476562 54.742188 22.640625 55.21875 22.363281 C 55.699219 22.089844 55.863281 21.476562 55.585938 21 C 55.402344 20.683594 55.0625 20.492188 54.699219 20.5 Z M 25.230469 20.5 C 24.890625 20.519531 24.582031 20.707031 24.410156 21 C 24.136719 21.476562 24.300781 22.089844 24.777344 22.363281 C 25.007812 22.5 25.28125 22.535156 25.535156 22.464844 C 25.792969 22.398438 26.011719 22.230469 26.144531 22 C 26.421875 21.523438 26.253906 20.910156 25.777344 20.636719 C 25.613281 20.539062 25.421875 20.492188 25.230469 20.5 Z M 23.570312 24.601562 C 23.121094 24.605469 22.730469 24.90625 22.613281 25.34375 C 22.46875 25.875 22.785156 26.421875 23.320312 26.566406 C 23.855469 26.710938 24.402344 26.394531 24.546875 25.859375 C 24.6875 25.324219 24.371094 24.777344 23.839844 24.636719 C 23.75 24.613281 23.660156 24.601562 23.570312 24.601562 Z M 56.457031 24.601562 C 56.359375 24.597656 56.257812 24.609375 56.160156 24.636719 C 55.628906 24.777344 55.3125 25.324219 55.453125 25.859375 C 55.597656 26.394531 56.144531 26.710938 56.679688 26.566406 C 57.214844 26.421875 57.53125 25.875 57.386719 25.34375 C 57.273438 24.917969 56.898438 24.617188 56.457031 24.601562 Z M 23 29 C 22.449219 29 22 29.449219 22 30 C 22 30.550781 22.449219 31 23 31 C 23.550781 31 24 30.550781 24 30 C 24 29.449219 23.550781 29 23 29 Z M 37 29 C 38.117188 29 39 29.882812 39 31 L 41 31 C 41 29.882812 41.882812 29 43 29 C 44.117188 29 45 29.882812 45 31 C 45 32.117188 44.117188 33 43 33 L 42 33 L 42 55 L 38 55 L 38 33 L 37 33 C 35.882812 33 35 32.117188 35 31 C 35 29.882812 35.882812 29 37 29 Z M 57 29 C 56.449219 29 56 29.449219 56 30 C 56 30.550781 56.449219 31 57 31 C 57.550781 31 58 30.550781 58 30 C 58 29.449219 57.550781 29 57 29 Z M 23.617188 33.402344 C 23.515625 33.398438 23.417969 33.410156 23.320312 33.4375 C 22.785156 33.578125 22.46875 34.125 22.613281 34.660156 C 22.757812 35.195312 23.304688 35.511719 23.839844 35.367188 C 24.371094 35.222656 24.6875 34.675781 24.546875 34.140625 C 24.433594 33.71875 24.054688 33.417969 23.617188 33.402344 Z M 56.410156 33.402344 C 55.964844 33.40625 55.570312 33.707031 55.453125 34.140625 C 55.3125 34.675781 55.628906 35.222656 56.160156 35.367188 C 56.695312 35.511719 57.242188 35.195312 57.386719 34.660156 C 57.53125 34.125 57.214844 33.578125 56.679688 33.4375 C 56.59375 33.414062 56.503906 33.402344 56.410156 33.402344 Z M 25.253906 37.5 C 25.085938 37.503906 24.921875 37.546875 24.777344 37.632812 C 24.300781 37.910156 24.136719 38.519531 24.410156 39 C 24.6875 39.476562 25.300781 39.640625 25.777344 39.363281 C 26.007812 39.234375 26.175781 39.015625 26.246094 38.757812 C 26.3125 38.5 26.277344 38.226562 26.144531 38 C 25.960938 37.679688 25.621094 37.488281 25.253906 37.5 Z M 54.671875 37.503906 C 54.335938 37.519531 54.027344 37.707031 53.855469 38 C 53.578125 38.480469 53.742188 39.089844 54.21875 39.367188 C 54.699219 39.644531 55.308594 39.480469 55.585938 39 C 55.863281 38.523438 55.699219 37.914062 55.21875 37.636719 C 55.054688 37.539062 54.863281 37.496094 54.671875 37.503906 Z M 27.996094 41.019531 C 27.722656 41.015625 27.460938 41.121094 27.269531 41.3125 C 26.882812 41.703125 26.882812 42.339844 27.269531 42.730469 C 27.660156 43.117188 28.296875 43.117188 28.6875 42.730469 C 29.074219 42.339844 29.074219 41.703125 28.6875 41.3125 C 28.5 41.128906 28.253906 41.027344 27.996094 41.019531 Z M 52.035156 41.019531 C 51.765625 41.015625 51.503906 41.121094 51.3125 41.3125 C 50.921875 41.703125 50.921875 42.339844 51.3125 42.730469 C 51.703125 43.117188 52.335938 43.117188 52.726562 42.730469 C 52.914062 42.539062 53.019531 42.285156 53.019531 42.019531 C 53.019531 41.753906 52.914062 41.5 52.726562 41.3125 C 52.542969 41.128906 52.292969 41.023438 52.035156 41.019531 Z M 31 57 L 49 57 L 49 59 L 37 59 L 37 61 L 49 61 L 49 63 L 37 63 L 37 65 L 48.816406 65 C 48.410156 66.167969 47.316406 67 46 67 L 34 67 C 32.683594 67 31.589844 66.167969 31.183594 65 L 35 65 L 35 63 L 31 63 L 31 61 L 35 61 L 35 59 L 31 59 Z M 37.183594 69 L 42.816406 69 C 42.410156 70.167969 41.316406 71 40 71 C 38.683594 71 37.589844 70.167969 37.183594 69 Z M 37.183594 69 "/>
</g>
</svg>
